Color
B

Release Date
1958

Genre
Crime  /  Musical  /  Social  /  Romance

Producer
Dev Anand

Executive Producer / Co-Producer
Brij Mohan

Director
Raj Khosla

Star Cast
Dev Anand...... Karan Mehra
Madhubala...... Asha
Nalini...... Kishori
Jaywant
Sapru...... Diwan Sardarilal
Johny Walker
Agha...... Badru
Mukri...... Madhosh Miyan
Kishore Sahu...... Rai Bahadur Jaswant Rai
Nasir Hussain...... Inspector Mehta
Krishan Dhawan...... Jumman
M A Lalif
Jankidas...... Daulat Chand
Bir Sakuja...... Editor at the press company
Parveen Paul...... Hotel Owner
Mumtaz Begum...... Karan's mother
Heera Sawant
R P Kapoor
Shyam
Prem Kumar
Samson
Ravikant
Rashid Khan...... Ramdas

Singers
Asha Bhosle
Mohammed Rafi

Lyricist
Majrooh Sultanpuri

Music Director
S D Burman
Jaidev

Choreography
Maharaj
Satyanarayan

Art
Biren Nag

Sound
Minoo Katrak

Dialogue
Bhappi Sonie

Costume
Vishwanath

Story / Writer
Anand Pal



General
Name                             : Kala Pani 1958 1CD DvDrip x264 ~ Crime | Musical | Romance ~ [RdY]
Format                           : MPEG-4
Format profile                   : Base Media
Codec ID                         : isom
File size                        : 696 MiB
Duration                         : 2h 17mn
Overall bit rate                 : 708 Kbps
Encoded date                     : UTC 2009-07-21 17:50:39
Tagged date                      : UTC 2009-07-21 17:50:39


Video
ID                               : 1
Format                           : AVC
Format/Info                      : Advanced Video Codec
Format profile                   : High@L3.0
Format settings, CABAC           : Yes
Format settings, ReFrames        : 5 frames
Codec ID                         : avc1
Codec ID/Info                    : Advanced Video Coding
Duration                         : 2h 17mn
Bit rate mode                    : Variable
Bit rate                         : 641 Kbps
Maximum bit rate                 : 2 180 Kbps
Width                            : 640 pixels
Height                           : 480 pixels
Display aspect ratio             : 4/3
Frame rate mode                  : Constant
Frame rate                       : 23.976 fps
Resolution                       : 24 bits
Colorimetry                      : 4.2.0
Scan type                        : Progressive
Bits/(Pixel*Frame)               : 0.087
Stream size                      : 630 MiB (91%)
Writing library                  : x264 core 68 r1179M 96e2229


Audio
ID                               : 2
Format                           : AAC
Format/Info                      : Advanced Audio Codec
Format version                   : Version 4
Format profile                   : LC
Format settings, SBR             : Yes
Format settings, PS              : No
Codec ID                         : 40
Duration                         : 2h 17mn
Bit rate mode                    : Variable
Bit rate                         : 63.8 Kbps
Maximum bit rate                 : 76.6 Kbps
Channel(s)                       : 6 channels
Channel positions                : Front: L C R, Rear: L R, LFE
Sampling rate                    : 48.0 KHz
Resolution                       : 16 bits
Stream size                      : 62.7 MiB (9%)
